# xmcd CD database file
#
# Track frame offsets:
#	150
#	26432
#	56711
#	83013
#	90048
#	125438
#	155620
#	191761
#	215245
#
# Disc length: 3157 seconds
#
# Revision: 3
# Processed by: cddbd v1.5PL3 Copyright (c) Steve Scherf et al.
# Submitted via: CDex 1.51
#
DISCID=710c5309
DTITLE=David Kikoski - Combinations
DYEAR=2001
DGENRE=Jazz
TTITLE0=Improvisations
TTITLE1=Cecilia
TTITLE2=Duo, Part I
TTITLE3=Bass Interlude
TTITLE4=Tamami
TTITLE5=Harmonizing Instincts
TTITLE6=Blues for Us
TTITLE7=Duo, Part II
TTITLE8=Trio Improvisation, Part II
EXTD=YEAR: 2001
EXTT0=
EXTT1=
EXTT2=
EXTT3=
EXTT4=
EXTT5=
EXTT6=
EXTT7=
EXTT8=
PLAYORDER=
